<?xml version="1.0" encoding="utf-8"?>
<!-- Generator: Adobe Illustrator 16.0.4, SVG Export Plug-In . SVG Version: 6.00 Build 0)  -->
<!DOCTYPE svg PUBLIC "-//W3C//DTD SVG 1.1//EN" "http://www.w3.org/Graphics/SVG/1.1/DTD/svg11.dtd">
<svg version="1.1" id="Layer_1" xmlns="http://www.w3.org/2000/svg" xmlns:xlink="http://www.w3.org/1999/xlink" x="0px" y="0px"
	 width="67px" height="67px" viewBox="0 0 67 67" enable-background="new 0 0 67 67" xml:space="preserve">
<path fill="#333333" d="M34,4C17.432,4,4,17.432,4,34s13.432,30,30,30s30-13.432,30-30S50.568,4,34,4z M24.27,39.27h17.678
	L24.27,35.63l0.783-3.283l15.381,3.166l-13.856-6.626l1.574-3.464l16.888,8.074l-1.575,3.464l-0.867-0.414l-0.649,2.723h0.783v3.461
	H24.27V39.27z M47.346,47.346H19.654V36.961h3.461v6.924h20.77v-6.924h3.461V47.346z M45.043,33.5L30.039,21.85l1.666-2.195h1.72
	l13.921,10.809L45.043,33.5z"/>
<polygon fill="#FFFFFF" points="42.73,39.27 41.947,39.27 24.27,39.27 24.27,42.73 42.73,42.73 "/>
</svg>
